<?xml version="1.0" standalone="no"?>
<!DOCTYPE svg PUBLIC "-//W3C//DTD SVG 20010904//EN"
 "http://www.w3.org/TR/2001/REC-SVG-20010904/DTD/svg10.dtd">
<svg version="1.0" xmlns="http://www.w3.org/2000/svg"
 width="208.000000pt" height="93.000000pt" viewBox="0 0 208.000000 93.000000"
 preserveAspectRatio="xMidYMid meet">

<g transform="translate(0.000000,93.000000) scale(0.100000,-0.100000)"
fill="#000000" stroke="none">
<path d="M90 545 l0 -275 150 0 150 0 0 50 0 50 -90 0 -90 0 0 225 0 225 -60
0 -60 0 0 -275z"/>
<path d="M416 804 c-3 -9 -6 -31 -6 -50 l0 -34 65 0 65 0 0 -225 0 -225 60 0
60 0 0 225 0 225 65 0 65 0 0 50 0 50 -184 0 c-158 0 -185 -2 -190 -16z"/>
<path d="M1390 669 c-14 -6 -35 -20 -47 -31 l-23 -21 0 26 c0 26 -2 27 -52 27
l-53 0 3 -280 3 -280 59 0 60 0 0 97 c0 91 1 95 18 81 47 -42 131 -29 181 27
35 41 47 85 45 177 -3 137 -92 217 -194 177z m55 -109 c26 -29 32 -118 11
-159 -9 -17 -28 -37 -42 -43 -21 -10 -28 -8 -49 12 -22 21 -25 31 -25 98 0 56
4 80 17 94 21 24 65 23 88 -2z"/>
<path d="M1749 657 c-63 -34 -99 -105 -99 -196 1 -142 94 -216 248 -195 69 9
76 15 68 57 l-7 36 -69 -6 c-67 -6 -70 -5 -99 25 -17 17 -31 35 -31 41 0 7 40
11 115 11 l115 0 0 62 c0 152 -115 231 -241 165z m114 -74 c8 -10 19 -30 22
-45 l7 -28 -67 0 c-57 0 -66 2 -61 16 3 9 6 20 6 25 0 16 39 49 58 49 11 0 26
-8 35 -17z"/>
<path d="M800 643 c4 -16 35 -103 67 -195 59 -164 60 -168 43 -195 -9 -16 -33
-37 -52 -47 l-35 -19 13 -45 c8 -25 16 -48 19 -50 10 -10 87 33 111 61 28 33
69 110 91 171 21 58 103 326 103 337 0 5 -27 9 -60 9 -33 0 -60 -3 -60 -6 0
-8 -39 -212 -47 -244 -4 -19 -13 3 -33 85 -14 61 -30 122 -33 138 -7 26 -10
27 -71 27 l-65 0 9 -27z"/>
</g>
</svg>
